<svg xmlns="http://www.w3.org/2000/svg" width="920" height="520" viewBox="0 0 920 520">
<rect width="100%" height="100%" fill="#ffffff"/>
<text x="460.0" y="32" text-anchor="middle" font-size="24" font-family="Segoe UI">Experiment 1 Cache Hit Rates (AMDuProf)</text>
<text x="22" y="245.0" transform="rotate(-90 22 245.0)" font-size="16" font-family="Segoe UI">hit rate (%)</text>
<line x1="90" y1="430.00" x2="890" y2="430.00" stroke="#d9d9d9" stroke-width="1"/>
<text x="80" y="435.00" text-anchor="end" font-size="12" font-family="Consolas">0.00</text>
<line x1="90" y1="356.00" x2="890" y2="356.00" stroke="#d9d9d9" stroke-width="1"/>
<text x="80" y="361.00" text-anchor="end" font-size="12" font-family="Consolas">22.30</text>
<line x1="90" y1="282.00" x2="890" y2="282.00" stroke="#d9d9d9" stroke-width="1"/>
<text x="80" y="287.00" text-anchor="end" font-size="12" font-family="Consolas">44.61</text>
<line x1="90" y1="208.00" x2="890" y2="208.00" stroke="#d9d9d9" stroke-width="1"/>
<text x="80" y="213.00" text-anchor="end" font-size="12" font-family="Consolas">66.91</text>
<line x1="90" y1="134.00" x2="890" y2="134.00" stroke="#d9d9d9" stroke-width="1"/>
<text x="80" y="139.00" text-anchor="end" font-size="12" font-family="Consolas">89.21</text>
<line x1="90" y1="60.00" x2="890" y2="60.00" stroke="#d9d9d9" stroke-width="1"/>
<text x="80" y="65.00" text-anchor="end" font-size="12" font-family="Consolas">111.52</text>
<line x1="90" y1="60" x2="90" y2="430" stroke="#222" stroke-width="2"/>
<line x1="90" y1="430" x2="890" y2="430" stroke="#222" stroke-width="2"/>
<text x="223.33" y="475" text-anchor="middle" font-size="13" font-family="Consolas">L1D</text>
<rect x="134.44" y="266.59" width="71.11" height="163.41" fill="#1f77b4"/>
<text x="170.00" y="258.59" text-anchor="middle" font-size="11" font-family="Consolas" fill="#1f77b4">49.25</text>
<rect x="223.33" y="180.69" width="71.11" height="249.31" fill="#d62728"/>
<text x="258.89" y="172.69" text-anchor="middle" font-size="11" font-family="Consolas" fill="#d62728">75.14</text>
<text x="490.00" y="475" text-anchor="middle" font-size="13" font-family="Consolas">L2</text>
<rect x="401.11" y="138.85" width="71.11" height="291.15" fill="#1f77b4"/>
<text x="436.67" y="130.85" text-anchor="middle" font-size="11" font-family="Consolas" fill="#1f77b4">87.75</text>
<rect x="490.00" y="262.61" width="71.11" height="167.39" fill="#d62728"/>
<text x="525.56" y="254.61" text-anchor="middle" font-size="11" font-family="Consolas" fill="#d62728">50.45</text>
<text x="756.67" y="475" text-anchor="middle" font-size="13" font-family="Consolas">L3</text>
<rect x="667.78" y="148.21" width="71.11" height="281.79" fill="#1f77b4"/>
<text x="703.33" y="140.21" text-anchor="middle" font-size="11" font-family="Consolas" fill="#1f77b4">84.93</text>
<rect x="756.67" y="108.26" width="71.11" height="321.74" fill="#d62728"/>
<text x="792.22" y="100.26" text-anchor="middle" font-size="11" font-family="Consolas" fill="#d62728">96.97</text>
<rect x="100" y="490" width="18" height="12" fill="#1f77b4"/>
<text x="125" y="500" font-size="13" font-family="Segoe UI">naive</text>
<rect x="280" y="490" width="18" height="12" fill="#d62728"/>
<text x="305" y="500" font-size="13" font-family="Segoe UI">cache_opt</text>
</svg>